' Generated by UML Generator
' Encoded: nHfhRziuydj-XR3v8b_YedSVZQwxQP9sWskQ8d4VmM9Hq19jQokB0YNbqTxURxyPlZIaA3Te0jo7DjPmE3CSpej3_jQqJBRTjjnhlXPLpIJR9bd9ckQeRMMnx5f-bedgglZ6a-TxcoBdILR8hEHxUmehEQhhOr6r_AvDlkyboNG51FWCmQ_n5u9ONPT5njf2L6h0VhnOp75OyYhdaijPScb-8HHawTfPSeP__itltnPDooiz97aZEfbndA1_dREAhVKWBAU5aJV0-mf_8cmA_ntqWgOWK2Z8154QtgevQKXaCajkH94ZpfgtQc7fn5iamWb5C-gl577i4X61B1U7r58H7bcpdgeNgwU62qSCBVo4hlvliazALhrBDQjugKHyZxz-QXkiLhKw1ZfzgNNwY3Khoqo9xfjMrEuRLiQMJIjPrYPkYPQxMkN1Tzp78lixEJbzzU7Db_EBazDPiXIYvAnAVarMh6oKVJYyJ1l8Z5ZrYvU7oKjbfradGKVjUr3uBC7_ZVrMW3K0rl2pcINdh7vnMdLRW1ucnoZbYvS9u8CM6ei-duCi5RzDVcVD1YVCKzJS_csHjvjPKbGjVcruiTwqxhCjsX8uNe6FLckw6yu2FOp3fATsc11Q4qzFi2FMHoQU4fGn7QgbxOENB92spy5t4Oqm8G8Yz1FAW52z20JzhaGXiDsRhYSTzpk18xtQqOFfO97FaiN4xJbAB_aQJKpsuuS9RfRQd9dP8noyMFurxzdk5rMXn2AakZf7Vyj1awjIi9PWvvBTKajr1ghSJVjWkv6SeG3ghmcKeGyfp-og2fGODLsxxOhkg1F-KAd0WdpkrmnsurXiQr61AbDW_KQoUbDapRZtdLPW3_VQyVHlPSO7cIXBI1kV2jXwhk0pW-jfyo1KMK3-gfP5omcJ_KP1PcO48QnQeq6gpL0O6QFVMbcKK6f3b0OgWxNKL4H7WWYr91GkKeq2SqoJYWZyjROAQzQXxxre2joK9rGAsgbMXh9ajMQTkd34pt_48MpmpP7q8amUTEg1g8wojhWnGqGoKPrm5XyANSNPFrOIslQB36i1f-jfTASGFQMOXmd5cyHu0MZSBG_YRebytaZHrLgsBPFheh812I8vXfDFEdmw0LbPhAktVDLIrcfP44GmYRr0gdDlBOf7Ei31-1EoE4o630uJ8fcjLv12CwJfnqkDD0a5qugoPkc51zuwS6r-z0PC49zA_LUyv9ck80_wxrJKo0zMXh0__ZnCShvYNGbbGyxlJ39hDkBsI4fnsn1DWNy9g6IEySzXie8iDajU2rHR9BBqlASC2Mcj4tVLu4kTD2aymXjzq8czq9d32ejVlIpu1Qot704AaqhTnwj05OkdqKDF-KbeWSNWxvI0FNDIir9AuYVCpLYiaYncjgqG4A-ru1HUcOB6VjUItwHFRCKBu46jkF_kjquNGq-sV-CwzwGovp9gTzFGqdJLsrUJg962bRwrhuexdUAYbSX6oE8RaCTPo9RElE4IwilOoDJgAgKYG4WScC43b57SgGJiK-8LMvQzo3yJvR3Y3KNqXt_UzjTsVD9lXwgWZSts1NJZYeanLHycSKKFF6WHECJZ7228fn_EJdLKquxWFjF9mvK-fFgnQ3fMKihxm-cg0586QYemRL-ZPTYQ23CS2gkvfmWJQ1tsy1uSKjyTdP_Q_GR7-WNDwHUt1ZenXUA0DNqNu0W_mJzOMIvPzhKVE3OGfNcGBm_4lrLLBoo1ERiT56tsn3xQta46hxhL2bi7-Y_FpxPGHE8WEJhywyGjndK40d9ApYMSqBom3iZqCmFvThcJYhp3EE1vfzrItAJ7HX-_gO4KBp7gnsZqjkdJUmeQK3AIuyy8nOkkBOkAFrQujs1AeAXZrGbCC-LRb9I4uQvnjQmlPiFNwCEDoNirbvagWSRaDcSp_xWNtoFlU31AoH5n9wuGyOqiSbXMMUfif-JyWKgEfMYQT0p9UPDcR0v1MzKr6lYC8dBEQjq-Cbex0nslkNGdYgbPJ8o84JOWOIduBPzCSeXWbbXbEd7W29njwN6ODCasJ2w4IMepzHdahjWn68TLKJOKo9vIjgQVuoiaKDq3WwUsbb-2K__Z0YZBStts3ypCf_s0KAidH4_8GHjK6yfNVj-SY5lO76mHNd4umndLaSuXWdNdSDeihIfUTKK95cZGF9X6bJmJCb_SrpiRJA5OEfKN3O1GhXG4rATIlm-0u-ybRngU8qeJmVdQOu160V_qXdlr4o1SGXdDTcA0_AF3glUb5nXsm8PGJ1z8AwY-XkM8PuRxCNDIRK2rtHPy0b_gc3TgPZYAjiDphwrWSkOZR7TVL1YpiQLNShH3NohI-YCN3JZYUlCw8WGOa4vC_rx_SaYUkGUSoEv7_AHetYe5161ink52wUM7LJCEMbazNPCQXipGFkKYXr8dzkhHWVH-ZxXLfMgL_f1KC-pNl2vAvIYTXAhxm-MPEkymMJ3CQPRnHmr0kbrPkXZkoPLI-jWKGkhsIr4t9u_Xp2MiO60HOqBuyNy5uZ-OSqJtFI6XeWgShU6SICekAROcWxR2flmT35IBokCoZx7XLRVrMlQdy_y3NQVaPgZbKPPcIleJKy7GtvcxH-zYvJtJzoh65X7qGPO8qGQfRYt1yAAJ3LVgFGQ43bHWRRTY4Ed2kABywBzuSp1cQL083gvgyKeYF1G5jvdQGKjTOqQJ4cvQrz1yhp9zBSKQaub9pG1_zdn5Q2sy6nVYZ2hcIjL1hRxot5x4sKqEB-x8MjpbdJzpRhEhHXobJ2dj8kHb0ACcdOJjVLQgr-1xikNlMNHy7IG9GfqpacHYF7OadWX9taID-ob8Fq3QHqha5mffC6GlKgBIq74LOqJLWCESHkP5XN4kDcH7oOqYwdpigrTdvqMiJeqhD3f1vN2oKrsb6cxOuomPb8Mby1INiGeELa7DTQNyUHZMZ3zxbsswG31rMwHRuIVSxx74VSFA3W0Nox_WI3n8nZOU-ihovlWfLAnsuWx3wev8_X6dwckv_jguWaDUotCrPkwEcGHaSX-LTz8yi74W8uNxRelju8hD8vtI6P2kAG_OJf_3v0VjBxeMidUlYwfeDeFo3dQPjnx_GP8uPjacFFNnE_2L9dH4GjTXAYiDyFowjiTjs4teAiE3iLtdhbdQNvRtBV_Zp-5wy0gu6RvLOMovJEiZhwrnPFiozIiF_ah3OuxmLgo3GhSKwtGBtgJw1LP4cqa1NJjXR6bcLZWxXdhB9BvLU0WgbrB8CKIt3hjQlPWxOi3tWJ5FNIltpXdjFRLMn_aRboBizr9lZimVH-xRPkD8fliyR9IDJiRq5BX3E2pQ3IKsnFYSvdUZqw_JV6HnswviYxgyJw7gQx6R5KE2pTdMdzDjKNrsojgokyyxiAyH-vfYNyUn8HHyJkz6nwxJ4S7NE2zubt4T0iugZTG_GGB8DO7a458mHqNqw-YeJkj2x4AfXDn25jMDC2hbXfMh45RnjNryGNTfsOIWhRX1lhJJ2ve4uCXMQdGRoNkx6v-IYVe-vDeAxPn-HyHqvV1bg8fWj_uJYGFxointKjKRlFMUEdY8SK-rdKJgUBk8n6TeRzk58MInBYgyFzFnDkpqXLFKPlgJ_BwdU_96RR1_z1POPkI17407R-Ji7ba-k_PdKTWtdtqYO4sxKCL0BZeerTGvoSE0qgrbkr4MP-UdNnONNzuTlRiWMF_yylpvS_jFJvbw6ZCbGomXw28WDe8D7YkIfpQAeMwGBWrnZG5Q8E-J_p6TzXTNGxXzD1SEkIP-01yyMHtCyz_ekXUuXfz-UUj1AQiU6cEaHvyzcuUIknUmXekHQ324hxpst8F4K0NcdTrq-f-vV_DgHv2p_hddlSnJC-83StkPuC6HaBBZ0TH58FNABIAAUawcuEwEMSDmDOPN_xOhWgW71AeOlWZ8Oq_U9oaQ-ZS58xgYGD5wLWQgj6w9akSYbAXwhn5CNrY3SfFx6_Q8Llf1RnN-_JdkneuXjI7ULRLYvAuul25auxS5HuTTdzjTAdi-wQ3EA3o84zY3Ef_nP-ljZy0yuwIu5D8Rv8W6Wi6Up8ynOYE-_dOW40sQKHfgz7GYyew9kXTEPzlZgOyn56_G2AGe8P4eqbxOyHD4ZC7Wk0GnZC52RIiW9cL_2FCCp0ShQt3d43yqKQYs6go7tDTlO7_TjlmV
' URL: http://www.plantuml.com/plantuml/uml/nHfhRziuydj-XR3v8b_YedSVZQwxQP9sWskQ8d4VmM9Hq19jQokB0YNbqTxURxyPlZIaA3Te0jo7DjPmE3CSpej3_jQqJBRTjjnhlXPLpIJR9bd9ckQeRMMnx5f-bedgglZ6a-TxcoBdILR8hEHxUmehEQhhOr6r_AvDlkyboNG51FWCmQ_n5u9ONPT5njf2L6h0VhnOp75OyYhdaijPScb-8HHawTfPSeP__itltnPDooiz97aZEfbndA1_dREAhVKWBAU5aJV0-mf_8cmA_ntqWgOWK2Z8154QtgevQKXaCajkH94ZpfgtQc7fn5iamWb5C-gl577i4X61B1U7r58H7bcpdgeNgwU62qSCBVo4hlvliazALhrBDQjugKHyZxz-QXkiLhKw1ZfzgNNwY3Khoqo9xfjMrEuRLiQMJIjPrYPkYPQxMkN1Tzp78lixEJbzzU7Db_EBazDPiXIYvAnAVarMh6oKVJYyJ1l8Z5ZrYvU7oKjbfradGKVjUr3uBC7_ZVrMW3K0rl2pcINdh7vnMdLRW1ucnoZbYvS9u8CM6ei-duCi5RzDVcVD1YVCKzJS_csHjvjPKbGjVcruiTwqxhCjsX8uNe6FLckw6yu2FOp3fATsc11Q4qzFi2FMHoQU4fGn7QgbxOENB92spy5t4Oqm8G8Yz1FAW52z20JzhaGXiDsRhYSTzpk18xtQqOFfO97FaiN4xJbAB_aQJKpsuuS9RfRQd9dP8noyMFurxzdk5rMXn2AakZf7Vyj1awjIi9PWvvBTKajr1ghSJVjWkv6SeG3ghmcKeGyfp-og2fGODLsxxOhkg1F-KAd0WdpkrmnsurXiQr61AbDW_KQoUbDapRZtdLPW3_VQyVHlPSO7cIXBI1kV2jXwhk0pW-jfyo1KMK3-gfP5omcJ_KP1PcO48QnQeq6gpL0O6QFVMbcKK6f3b0OgWxNKL4H7WWYr91GkKeq2SqoJYWZyjROAQzQXxxre2joK9rGAsgbMXh9ajMQTkd34pt_48MpmpP7q8amUTEg1g8wojhWnGqGoKPrm5XyANSNPFrOIslQB36i1f-jfTASGFQMOXmd5cyHu0MZSBG_YRebytaZHrLgsBPFheh812I8vXfDFEdmw0LbPhAktVDLIrcfP44GmYRr0gdDlBOf7Ei31-1EoE4o630uJ8fcjLv12CwJfnqkDD0a5qugoPkc51zuwS6r-z0PC49zA_LUyv9ck80_wxrJKo0zMXh0__ZnCShvYNGbbGyxlJ39hDkBsI4fnsn1DWNy9g6IEySzXie8iDajU2rHR9BBqlASC2Mcj4tVLu4kTD2aymXjzq8czq9d32ejVlIpu1Qot704AaqhTnwj05OkdqKDF-KbeWSNWxvI0FNDIir9AuYVCpLYiaYncjgqG4A-ru1HUcOB6VjUItwHFRCKBu46jkF_kjquNGq-sV-CwzwGovp9gTzFGqdJLsrUJg962bRwrhuexdUAYbSX6oE8RaCTPo9RElE4IwilOoDJgAgKYG4WScC43b57SgGJiK-8LMvQzo3yJvR3Y3KNqXt_UzjTsVD9lXwgWZSts1NJZYeanLHycSKKFF6WHECJZ7228fn_EJdLKquxWFjF9mvK-fFgnQ3fMKihxm-cg0586QYemRL-ZPTYQ23CS2gkvfmWJQ1tsy1uSKjyTdP_Q_GR7-WNDwHUt1ZenXUA0DNqNu0W_mJzOMIvPzhKVE3OGfNcGBm_4lrLLBoo1ERiT56tsn3xQta46hxhL2bi7-Y_FpxPGHE8WEJhywyGjndK40d9ApYMSqBom3iZqCmFvThcJYhp3EE1vfzrItAJ7HX-_gO4KBp7gnsZqjkdJUmeQK3AIuyy8nOkkBOkAFrQujs1AeAXZrGbCC-LRb9I4uQvnjQmlPiFNwCEDoNirbvagWSRaDcSp_xWNtoFlU31AoH5n9wuGyOqiSbXMMUfif-JyWKgEfMYQT0p9UPDcR0v1MzKr6lYC8dBEQjq-Cbex0nslkNGdYgbPJ8o84JOWOIduBPzCSeXWbbXbEd7W29njwN6ODCasJ2w4IMepzHdahjWn68TLKJOKo9vIjgQVuoiaKDq3WwUsbb-2K__Z0YZBStts3ypCf_s0KAidH4_8GHjK6yfNVj-SY5lO76mHNd4umndLaSuXWdNdSDeihIfUTKK95cZGF9X6bJmJCb_SrpiRJA5OEfKN3O1GhXG4rATIlm-0u-ybRngU8qeJmVdQOu160V_qXdlr4o1SGXdDTcA0_AF3glUb5nXsm8PGJ1z8AwY-XkM8PuRxCNDIRK2rtHPy0b_gc3TgPZYAjiDphwrWSkOZR7TVL1YpiQLNShH3NohI-YCN3JZYUlCw8WGOa4vC_rx_SaYUkGUSoEv7_AHetYe5161ink52wUM7LJCEMbazNPCQXipGFkKYXr8dzkhHWVH-ZxXLfMgL_f1KC-pNl2vAvIYTXAhxm-MPEkymMJ3CQPRnHmr0kbrPkXZkoPLI-jWKGkhsIr4t9u_Xp2MiO60HOqBuyNy5uZ-OSqJtFI6XeWgShU6SICekAROcWxR2flmT35IBokCoZx7XLRVrMlQdy_y3NQVaPgZbKPPcIleJKy7GtvcxH-zYvJtJzoh65X7qGPO8qGQfRYt1yAAJ3LVgFGQ43bHWRRTY4Ed2kABywBzuSp1cQL083gvgyKeYF1G5jvdQGKjTOqQJ4cvQrz1yhp9zBSKQaub9pG1_zdn5Q2sy6nVYZ2hcIjL1hRxot5x4sKqEB-x8MjpbdJzpRhEhHXobJ2dj8kHb0ACcdOJjVLQgr-1xikNlMNHy7IG9GfqpacHYF7OadWX9taID-ob8Fq3QHqha5mffC6GlKgBIq74LOqJLWCESHkP5XN4kDcH7oOqYwdpigrTdvqMiJeqhD3f1vN2oKrsb6cxOuomPb8Mby1INiGeELa7DTQNyUHZMZ3zxbsswG31rMwHRuIVSxx74VSFA3W0Nox_WI3n8nZOU-ihovlWfLAnsuWx3wev8_X6dwckv_jguWaDUotCrPkwEcGHaSX-LTz8yi74W8uNxRelju8hD8vtI6P2kAG_OJf_3v0VjBxeMidUlYwfeDeFo3dQPjnx_GP8uPjacFFNnE_2L9dH4GjTXAYiDyFowjiTjs4teAiE3iLtdhbdQNvRtBV_Zp-5wy0gu6RvLOMovJEiZhwrnPFiozIiF_ah3OuxmLgo3GhSKwtGBtgJw1LP4cqa1NJjXR6bcLZWxXdhB9BvLU0WgbrB8CKIt3hjQlPWxOi3tWJ5FNIltpXdjFRLMn_aRboBizr9lZimVH-xRPkD8fliyR9IDJiRq5BX3E2pQ3IKsnFYSvdUZqw_JV6HnswviYxgyJw7gQx6R5KE2pTdMdzDjKNrsojgokyyxiAyH-vfYNyUn8HHyJkz6nwxJ4S7NE2zubt4T0iugZTG_GGB8DO7a458mHqNqw-YeJkj2x4AfXDn25jMDC2hbXfMh45RnjNryGNTfsOIWhRX1lhJJ2ve4uCXMQdGRoNkx6v-IYVe-vDeAxPn-HyHqvV1bg8fWj_uJYGFxointKjKRlFMUEdY8SK-rdKJgUBk8n6TeRzk58MInBYgyFzFnDkpqXLFKPlgJ_BwdU_96RR1_z1POPkI17407R-Ji7ba-k_PdKTWtdtqYO4sxKCL0BZeerTGvoSE0qgrbkr4MP-UdNnONNzuTlRiWMF_yylpvS_jFJvbw6ZCbGomXw28WDe8D7YkIfpQAeMwGBWrnZG5Q8E-J_p6TzXTNGxXzD1SEkIP-01yyMHtCyz_ekXUuXfz-UUj1AQiU6cEaHvyzcuUIknUmXekHQ324hxpst8F4K0NcdTrq-f-vV_DgHv2p_hddlSnJC-83StkPuC6HaBBZ0TH58FNABIAAUawcuEwEMSDmDOPN_xOhWgW71AeOlWZ8Oq_U9oaQ-ZS58xgYGD5wLWQgj6w9akSYbAXwhn5CNrY3SfFx6_Q8Llf1RnN-_JdkneuXjI7ULRLYvAuul25auxS5HuTTdzjTAdi-wQ3EA3o84zY3Ef_nP-ljZy0yuwIu5D8Rv8W6Wi6Up8ynOYE-_dOW40sQKHfgz7GYyew9kXTEPzlZgOyn56_G2AGe8P4eqbxOyHD4ZC7Wk0GnZC52RIiW9cL_2FCCp0ShQt3d43yqKQYs6go7tDTlO7_TjlmV
' Generated on: 2025-12-11T14:22:56.061642600

@startuml
skinparam classAttributeIconSize 0
hide circle

class AppContext {
  -frame: AppFrame
  -application: Application<T>
  -renderer: Renderer
  -input: InputKeyListener
  -resource: ResourceManager
  -state: GameState
  --
  +AppContext(app: Application<T>)
  +setState(state: GameState): void
  +getFrame(): AppFrame
  +getApplication(): Application<T>
  +getRenderer(): Renderer
  +getInput(): InputKeyListener
  +getResource(): ResourceManager
  +getState(): GameState
}

class AppFrame {
  -panel: AppPanel
  -renderer: Renderer
  -input: InputKeyListener
  --
  +AppFrame(app: Application<?>)
  +getRenderer(): Renderer
  +getInput(): InputKeyListener
  +start(): void
  +stop(): void
}

abstract class Application {
  +{static} DEBUG_MODE: boolean = false
  -{static} context: AppContext<?, ?>
  -currentPage: Page<T>
  -nextPage: Page<T>
  -pages: Map<Enum<T>, Class<? extends Page<T>>> = new HashMap<>()
  #width: int
  #height: int
  #title: String
  --
  +Application(title: String, width: int, height: int)
  +{static} getContext(): AppContext<State,T>
  #setTitle(title: String): void
  +getTitle(): String
  +getWidth(): int
  +getHeight(): int
  +start(): void
  +stop(): void
  +getCurrentPage(): Page<T>
  +setCurrentPage(id: T): boolean
  #registerPage(id: T, pageClass: Class<PageObj>): void
  #init(): boolean
  #update(dt: float): void
  #draw(): void
}

class AppPanel {
  -thread: Thread
  -app: Application<?>
  -running: boolean = false
  --
  +AppPanel(app: Application<?>)
  +start(): void
  +stop(): void
  +run(): void
  #paintComponent(g: Graphics): void
}

abstract class Entity {
  +Entity()
  +collideWith(entity: Entity): boolean
  +draw(): void
}

abstract class SpriteEntity {
  #sprite: Sprite
  #angle: float
  #scale: float
  --
  +SpriteEntity()
  +getSprite(): Sprite
  +getAngle(): float
  +getScale(): float
  +getScaledSize(): Size
  +getCenter(): Position
  +collideWith(entity: Entity): boolean
  +draw(): void
}

abstract class Page {
  #id: T
  #state: PageState
  --
  +Page(id: T)
  +getId(): T
  +getState(): PageState
  +onActivate(): boolean
  +onDeactivate(): boolean
  +init(): boolean
}

class Icon {
  -icon: Sprite
  -scale: float
  --
  +Icon(icon: Sprite, scale: float)
  +init(): boolean
  +update(dt: float): void
  +draw(): void
}

class IconGroup {
  -margin: int
  -parentWidth: float
  -alignLeft: boolean
  -icons: List<Icon>
  --
  +IconGroup(icons: List<Icon>, parentWidth: float, alignLeft: boolean, margin: int)
  +setIcons(icons: List<Icon>): void
  +getIcons(): List<Icon>
  -updatePosition(): void
  +setPosition(position: Position): void
  +init(): boolean
  +update(dt: float): void
  +draw(): void
}

class IconSelect {
  +IconSelect(options: Icon[], defaultIndex: int, showArrows: boolean, color: Color, font: Font)
}

abstract class Select {
  -arrowLeft: Position
  -arrowRight: Position
  -showArrows: boolean
  #options: T
  #index: int
  #font: Font
  #element: T
  #color: Color
  --
  +Select(options: T[], defaultIndex: int, showArrows: boolean, color: Color, font: Font)
  +Select(defaultIndex: int, showArrows: boolean, color: Color, font: Font)
  +setFont(font: Font): void
  +setColor(color: Color): void
  +setPosition(position: Position): void
  -updateArrowPosition(): void
  +toogleArrows(): void
  +next(): void
  +prev(): void
  +init(): boolean
  +update(dt: float): void
  +draw(): void
}

class TextSelect {
  +TextSelect(options: String[], defaultIndex: int, showArrows: boolean, color: Color, font: Font)
  +setFont(font: Font): void
}

class Text {
  -font: Font
  -color: Color
  -text: String
  -initial: Position
  -fixedSize: boolean = false
  -horizontal: TextPosition
  -vertical: TextPosition
  --
  +Text(text: String, position: Position, color: Color, font: Font)
  +setFixSize(text: String, enable: boolean): void
  +setPosition(position: Position): void
  +setText(text: String): void
  +setFont(font: Font): void
  +setColor(color: Color): void
  +getColor(): Color
  +getText(): String
  +setCenter(horizontal: TextPosition, vertical: TextPosition): void
  -updateText(): void
  +init(): boolean
  +update(dt: float): void
  +draw(): void
}

abstract class UIElement {
  +UIElement()
  +setPosition(position: Position): void
}

abstract class VisualElement {
  #position: Position
  #size: Size
  --
  +getCenter(): Position
  +getPosition(): Position
  +getSize(): Size
  +init(): boolean
  +update(dt: float): void
  +draw(): void
}

class FontResource {
  +{static} NAME: String = "font"
  --
  +FontResource(alias: ResourceAlias, callback: ResourceCallback)
  +load(): boolean
  +write(data: Font): boolean
}

class Renderer {
  -frame: AppFrame
  -backBuffer: BufferedImage
  -g: Graphics2D
  --
  +Renderer(frame: AppFrame)
  +begin(): void
  +end(): void
  +clear(color: Color): void
  +getTextSize(text: String, font: Font): Size
  +drawText(text: String, position: Position, color: Color, font: Font): Renderer
  +drawRect(position: Position, size: Size, color: Color): Renderer
  +drawRect(position: Position, size: Size, color: Color, angle: float): Renderer
  +drawRectOutline(position: Position, size: Size, color: Color): Renderer
  +drawLoadingCircle(center: Position, radius: float, color: Color, segments: int, percent: float): Renderer
  +drawSprite(sprite: Sprite, position: Position, scale: float): Renderer
  +drawSprite(e: SpriteEntity): Renderer
  +drawGrid(cellSize: int, color: Color): Renderer
  +drawCross(color: Color): Renderer
}

class Sprite {
  -image: BufferedImage
  -colorMap: Map<Color, Integer>
  --
  -Sprite(image: BufferedImage, colorMap: Map<Color,Integer>)
  +{static} createSprite(in: InputStream): Sprite
  -{static} charToColor(c: char): Color
  +getSize(): Size
  +getColors(): Map<Color,Integer>
  +getImage(): BufferedImage
}

class SpriteResource {
  +{static} NAME: String = "sprite"
  --
  +SpriteResource(alias: ResourceAlias, callback: ResourceCallback)
  +addScale(scale: float): SpriteResource
  +load(): boolean
  +write(data: Sprite): boolean
}

class InputKeyListener {
  -keysDown: HashSet<Integer> = new HashSet<>()
  -sb: StringBuilder = new StringBuilder()
  -recordTyping: boolean = false
  --
  +InputKeyListener()
  +isKeyDown(key: int): boolean
  +isKeyPressed(keys: int): boolean
  +keyPressed(e: KeyEvent): void
  +keyReleased(e: KeyEvent): void
  +keyTyped(e: KeyEvent): void
  +startTyping(): void
  +stopTyping(): void
  +getTypedText(): String
}

abstract class Resource {
  #alias: ResourceAlias
  #data: ResourceData
  #callback: ResourceCallback
  #loaded: boolean
  --
  +Resource(alias: ResourceAlias, callback: ResourceCallback)
  #onLoadComplete(d: ResourceData): void
  #getResourceData(): InputStream
  #getResourceOutput(): OutputStream
  +write(data: ResourceData): boolean
  +load(): boolean
  +isLoaded(): boolean
  +getAlias(): ResourceAlias
  +getData(): ResourceData
}

class ResourceAlias {
  -{static} aliases: Set<String> = new HashSet<>()
  -name: String
  -path: File
  -url: URI
  -variant: ResourceVariant = null
  --
  -ResourceAlias(name: String, path: String, url: String)
  -ResourceAlias(base: ResourceAlias, variant: ResourceVariant)
  +{static} file(name: String, path: String, url: String): ResourceAlias
  +{static} folder(prefix: String, from: int, to: int, path: String, url: String): List<ResourceAlias>
  +{static} folder(enumClass: Class<E>, path: String, url: String): List<ResourceAlias>
  +{static} folder(enumClass: Class<E>, path: String, url: String, variants: ResourceVariant): List<ResourceAlias>
  +variant(variants: ResourceVariant): List<ResourceAlias>
  +getName(): String
  +getPath(): File
  +getUrl(): URI
  +getFullName(): String
  +getVariant(): ResourceVariant
}

interface ResourceCallback {
  ~run(variant: ResourceVariant, resource: Resource<?>): void
}

class ResourceManager {
  -loading: boolean = false
  -status: String = ""
  -progress: float = .0f
  -loadingThread: Thread = null
  -loaders: LinkedHashMap<String, Class<? extends Resource<?>>> = new LinkedHashMap<>()
  -resources: LinkedHashMap<String, Resource<?>> = new LinkedHashMap<>()
  --
  +ResourceManager()
  +register(loadername: String, resourceClass: Class<? extends Resource<?>>): void
  +add(alias: ResourceAlias, loadername: String, callback: ResourceCallback): void
  +add(aliases: List<ResourceAlias>, loadername: String, callback: ResourceCallback): void
  +add(alias: ResourceAlias, loadername: String): void
  +add(aliases: List<ResourceAlias>, loadername: String): void
  +get(name: String): T
  +get(alias: ResourceAlias): T
  +get(enumConst: E): T
  +get(alias: List<ResourceAlias>, variant: String): T
  +get(enumConst: E, variant: String): T
  +write(name: String, data: T): boolean
  +write(alias: ResourceAlias, data: T): boolean
  +load(callback: Runnable, delay: long): void
  +cancel(): void
  +getStatus(): String
  +getProgress(): float
  +isLoading(): boolean
}

class ResourceVariant {
  -name: String
  -value: Object
  --
  -ResourceVariant(name: String, value: Object)
  +{static} of(name: String, value: Object): ResourceVariant
  +getName(): String
  +getValue(): T
}

class AnimatedValue {
  -target: float
  -duration: float
  -value: float
  -time: float
  --
  +AnimatedValue(value: float, target: float, duration: float)
  +update(dt: float): void
  +getValue(): float
  +isFinished(): boolean
  +reset(value: float): void
}

class Cache {
  +{static} exists(name: String): boolean
  +{static} load(name: String): InputStream
  +{static} save(name: String, in: InputStream): void
  +{static} save(name: String, data: byte[]): void
}

class Collision {
  +{static} aabb(pA: Position, sA: Size, pB: Position, sB: Size): boolean
}

class Log {
  -{static} log(message: String, status: LogStatus): void
  +{static} message(message: String): void
  +{static} warning(message: String): void
  +{static} error(message: String): void
}

class Position {
  -x: float
  -y: float
  --
  -Position(x: float, y: float)
  +{static} zero(): Position
  +{static} of(x: float, y: float): Position
  +{static} of(size: Size): Position
  +{static} ofCenter(center: Position, size: Size): Position
  +add(value: float): Position
  +add(other: Position): Position
  +addX(dx: float): Position
  +addY(dy: float): Position
  +multiply(factor: float): Position
  +clampX(minX: float, maxX: float): Position
  +clampY(minY: float, maxY: float): Position
  +setX(x: float): Position
  +setY(y: float): Position
  +getX(): float
  +getY(): float
  +getIntX(): int
  +getIntY(): int
  +distance(other: Position): float
  +angleTo(other: Position): float
  +normalize(): Position
  +half(): Position
  +negate(): Position
  +abs(): Position
  +moveTo(angle: float, move: float): Position
  +moveTo(target: Position, move: float): Position
  +copy(): Position
  +toString(): String
}

class Size {
  +width: float
  +height: float
  --
  -Size(width: float, height: float)
  +{static} zero(): Size
  +{static} of(width: float, height: float): Size
  +{static} of(size: float): Size
  +{static} of(original: Size, scale: float): Size
  +{static} half(original: Size): Size
  +getWidth(): float
  +getHeight(): float
  +getIntWidth(): int
  +getIntHeight(): int
  +copy(): Size
  +toString(): String
}

class Time {
  -{static} lastTime: double = .0
  -{static} deltaTime: double = .0
  -{static} TIME_TO_NANO: double = 1_000_000_000.0
  --
  +{static} update(): void
  +{static} reset(): void
  +{static} getDeltaTime(): float
  +{static} getFrameRate(): float
}

AppContext *-- AppFrame
AppContext *-- Application
AppContext *-- Renderer
AppContext *-- InputKeyListener
AppContext *-- ResourceManager
AppFrame *-- AppPanel
AppFrame *-- Renderer
AppFrame *-- InputKeyListener
AppFrame ..> Application
Application *-- AppContext
Application *-- Page
AppPanel *-- Application
Entity --|> VisualElement
Entity ..> Entity
SpriteEntity --|> Entity
SpriteEntity --> Sprite
SpriteEntity ..> Size
SpriteEntity ..> Position
Page --|> VisualElement
Icon --|> UIElement
Icon *-- Sprite
IconGroup --|> UIElement
IconGroup o-- Icon
IconGroup ..> Position
IconSelect --|> Select
IconSelect ..> Icon
Select --|> UIElement
Select *-- Position
TextSelect --|> Select
Text --|> UIElement
Text *-- Position
UIElement --|> VisualElement
UIElement ..> Position
VisualElement --> Position
VisualElement --> Size
FontResource --|> Resource
FontResource ..> ResourceAlias
FontResource ..> ResourceCallback
Renderer *-- AppFrame
Renderer ..> Size
Renderer ..> Position
Renderer ..> Renderer
Renderer ..> Sprite
Renderer ..> SpriteEntity
Sprite ..> Sprite
Sprite ..> Size
SpriteResource --|> Resource
SpriteResource ..> SpriteResource
SpriteResource ..> Sprite
SpriteResource ..> ResourceAlias
SpriteResource ..> ResourceCallback
Resource *-- ResourceAlias
Resource --> ResourceCallback
ResourceAlias *-- ResourceVariant
ResourceAlias ..> ResourceAlias
ResourceCallback ..> ResourceVariant
ResourceCallback ..> Resource
ResourceManager o-- Resource
ResourceManager ..> ResourceAlias
ResourceManager ..> ResourceCallback
ResourceVariant ..> ResourceVariant
Collision ..> Position
Collision ..> Size
Position ..> Position
Position ..> Size
Size ..> Size
@enduml