' Generated by UML Generator
' Encoded: nHbhRziuydj-XP1W0VdgHv8sUqNG3QhOSYnKjWDRRTCU3WPjqxOkicH8L9hitlxtco4fYPIbD6bJ750q8kV1US-GVfym4hDq6nmajtwu8p7P6ek098d5MEpFKqQTHHHE_J-fSNomyPVKMFZn8g071npBw4RXobyRVnqOngk_W1Vp5tyRdvrHR_nvzjdfUODpmm-PyOVnp-FZAfo1xLmDlEyWUOxdskV652GAru1sU4K2iYP6otZ_dpIWoKaQ-dU76kMrQtsn9pDdv7YEvSvSfszdXxpM4AVN4yUpPzEkvTgpdjstFheWpYg82EAUjizMzUXETpmgS4_Ak4AtsU1Zhq0wEsvN8lKVHPfUstPlvewjdZEwEZU2Y9lXj6GjWIKqBvZzVbpDRUfP2XRmQXzNeLr-T5tRKsMhPcUFxE6NMT_gUkF9OzWz6-IR0Pep7e5xUlPDjLy4dZtok1SLjDDAD3oS8nTdjq_EgewU3iPZRyzAxKfS6KK3Hp70wqg5fFhZoT12pHGBF8BU7OzTYE-HDDlCyZoh-w6W1PUSF9rww4od3kQ9GbwczvoXFRjqdT47TFziQDqeyRiN0MLiPwIQeHmkpbV8YmzVPbSJfvSvw-nu7wS_7dcp6zUQN2colddRNjMWbZ1VdzPYUlQDchjlgX2lhOddT7avmQBs1__JZbOc-BM9pcteTMGyTNYekkFkXvatcDWGFsvFpVfLDS781fDL4HpNKGYtkdOVbBYE4f_vKGW4sISAsJh1X6gAf6uyncOYwceDdxVVP_FLkPfzjQ3Qk7x2tcN45y08Dv29ol2KytkDbQlHr8xw_Iq7lJdU1mcYD_L4PxL4P_L4GYbTg-xOXGp9Qbat2g8O50dfD_5jdfwTDOrZ-AUJVR8cZWM1fKHNqOGOlMU7zUWoR0lyWCHh-WZ1pHx5VGL9re06plMvCQ59bCOBQWK-IO12MxTNVa3DmsJZxmwRnc4iOKadsSK-mxy0QSC2eHl6TibvfnEJR-srppRfF4re3AsVqP2r5z6sKtJQZcY_dPYkaiw6acNIsPA4qRZpo1cDAYs6TizodwR6bYv9KAq71_rgHOf3gZIPYgoJoQB9Vx6lK1GiQMpQ8Tq-U0yxskQZLALgloM_MYzvWguKnkFqYSfmxwn03jqvk9DqbdH5qe2r6LkfIa3zEC7UX3ZjaBBECleMGdrSShBE_87HUPI62ze6i_lfbjCtsdSazad8p4o2JsADkI_cqFPUmZRbXDhMkmHKZYSouKbPmONlFvtDJHqV0IYLAzV-PBlJPqNJOK3lQF3R4inyqZHEDLzm47TrS1VyYc3I3z1rkRId7ipBuudzj4IVquJDaaKKKpsWDlvwmxUBhtQo-1NQr9pKEFWxk_LSfa506R_rj4Yu3gXixxXEDb44_A2EymopG-Qp1mJCetkSDSJWWHijj9DWPLPISKEkAPiAeDauDt9sh_nadBBnwXBoP9aWQ1v50IKXXuK-AssbkoLXr5moAIf0xo9_YQ0b6CxCrYKTXoGaQneBLUTyAv5nAH0kP1-rufWyyFqBir7IJZBX-w-ufZNw5ZB1NanOn7Lsv7Ts8i9Zketk86u2Ktm9a2wPoYwnjplsyA9c8lE4nMJ1n7tPuEMSs-c8GL4_D_BwZbj1jBWjfZ7SINQKBekuELf5yPOWS5e2y03yH8AKygcQRq5kPITCyPi7uWAfdN19xpF4beyhpz-YfVC85OYgsgqbdQVhFcJCkO7_v_xZ9vWbVPf6GXc36IMJGAoQHgKAtEaRalIYa5hyv9B98V4eAo2PkJ7kKJKHzOgY244nSe2qCQV8RONGp0Y94xfW_ypw-lcGm3v8JRr8mwc8W2CH75BKgX1vYRpZAbrIAb9kwoS9bCKkCCGUgNXHGbJdyZiVNYvQV_hhhsHTn092TAV22UPptDWqgaLfVDym9TLI1ldS3nv-Ia66ap7JCafLBZlZ_wFYC68RsHmO8ulR2kK4u4TqG-RFLAjIYcTh9KyHYksNk5QWf8ykV5LbWjPCOtrhlz2rIaLICOEKPhyswPKMb2yTtZHAHpUDk_nCA6tbqfKFCekO4knKok617zBimePy0MIfnmt9xbqXcWFdGXkyg9203r3GlV1FG_VgTofUkR0fTaUm8avH4H5WvoBe-rKLbE-ZNN1B-28FZMiIWtK2MQuMU9kM5spULzAOY7WevgEIIylp4tTnnjNSxGLKqr0FQHgb8tGFWliLzWqv2jpl_5Weyy8pKoPseerDksptN9cICjJ7vwSoGp52oKYytmLW4t0xvTDJxInLXouGTNi-GbRbYYGVQ6lPFD-80Nd8J1VuAwhNXtp5B-H90SI14gFzZchTVI6hNda8slYil5Kt10c1J1azV1Y7l1HdbI8caSCw5eSgYVJvnWNjAh9FtnfoFPMzAFpW1u6Op7Z9aKL1uHs5VGZdPCFhYQa11YBAYy6u1vUWgedCVE6vPdehEpx-ufJT8M2cYsipO1txIt5ZyXLl01zJWpHUJ48GfhgC8NUV15-KO64GFCfo3gtWjaSXKag3TYaSXGfmq2Ff92kNbaylfQFyvOp_NYU-JRtBGSHryUPypu-oTZkvUiV7xwQWkOPQTA6HROaVcZ2t95ax_DU_2rbQ-BIZItwqhynHdJAvy3oSXOT2iiqxBwxhRa_r4rZzu8b9vTCiHDLU_6YnRebiKoLxtaJssFnP7aF4MJwWEE4kXPiIx6uRSe90OQhm-t6q7K2wGp73oKLyPh8gn5XsHg06-YStCMxsDMsAQK3E6ffIPUXGrwqCjeNHSRim-qN9zzbxKUdtvf4rr5_Q4VSmJpUDr2JurbHwYe9a8q4m9pWvPe2ktE7Mtm_WLz-mrveGiQIOsp9mBdN_OwzePFXBEfoCVwxYADtbNQmAW0_dMKVF4TKDhXhm5m4elCpZ4jcOudatmyS1CropZQYNqiA8T_5oTMKhHy3a5YUHM_xajUETyrosz9hSkj2UbhGNezBqL9w6k67HzDf5jtN22q8AsGRcuRqUlmVYkoKg7mQtQ8YyGyjt1iK2KGYDiHB4gza8IcBUNN_6S8CiGbOxqD03jigeaotnJNIgRs5DhfXL1Z8WNiIfBYXQtFZWmE9uaLW2_iEMn749fJTNkI8_CpWEQPWAMTVWts6qbEQQqe0kPDDc0Qsm6b8ABPvww8yeN0mQw4eXwPrstHNJ0Py12u1U_Z7u1CP-yUVx6dP2xgZ05eMAVpUDA0NznYbJYHK5e1oNRu2BQ0k9IBt8Z2GN2TELUcA15i_xkiQ_j41d4k-x0gSQ8Qrw1yVrNl5wLLEaW9d-M1wrMXBbGBmAjziN-fq-V-HhjVuhGSLU3NR-RhP7aqEgAVbpL9c8RrRZPmyz21NMsDlMYFPklQX_jdaWhtCvrG5U1103f-03CTBXKcCfjWi1zEvVxFEsymza1WqdNqYFyNNEkW3htYkeojqbXs0RoHVOHqG2enWYvVJOL_PvTBLQcRZ5MeeeDg8zeTxJS9bkW_y1
' URL: http://www.plantuml.com/plantuml/uml/nHbhRziuydj-XP1W0VdgHv8sUqNG3QhOSYnKjWDRRTCU3WPjqxOkicH8L9hitlxtco4fYPIbD6bJ750q8kV1US-GVfym4hDq6nmajtwu8p7P6ek098d5MEpFKqQTHHHE_J-fSNomyPVKMFZn8g071npBw4RXobyRVnqOngk_W1Vp5tyRdvrHR_nvzjdfUODpmm-PyOVnp-FZAfo1xLmDlEyWUOxdskV652GAru1sU4K2iYP6otZ_dpIWoKaQ-dU76kMrQtsn9pDdv7YEvSvSfszdXxpM4AVN4yUpPzEkvTgpdjstFheWpYg82EAUjizMzUXETpmgS4_Ak4AtsU1Zhq0wEsvN8lKVHPfUstPlvewjdZEwEZU2Y9lXj6GjWIKqBvZzVbpDRUfP2XRmQXzNeLr-T5tRKsMhPcUFxE6NMT_gUkF9OzWz6-IR0Pep7e5xUlPDjLy4dZtok1SLjDDAD3oS8nTdjq_EgewU3iPZRyzAxKfS6KK3Hp70wqg5fFhZoT12pHGBF8BU7OzTYE-HDDlCyZoh-w6W1PUSF9rww4od3kQ9GbwczvoXFRjqdT47TFziQDqeyRiN0MLiPwIQeHmkpbV8YmzVPbSJfvSvw-nu7wS_7dcp6zUQN2colddRNjMWbZ1VdzPYUlQDchjlgX2lhOddT7avmQBs1__JZbOc-BM9pcteTMGyTNYekkFkXvatcDWGFsvFpVfLDS781fDL4HpNKGYtkdOVbBYE4f_vKGW4sISAsJh1X6gAf6uyncOYwceDdxVVP_FLkPfzjQ3Qk7x2tcN45y08Dv29ol2KytkDbQlHr8xw_Iq7lJdU1mcYD_L4PxL4P_L4GYbTg-xOXGp9Qbat2g8O50dfD_5jdfwTDOrZ-AUJVR8cZWM1fKHNqOGOlMU7zUWoR0lyWCHh-WZ1pHx5VGL9re06plMvCQ59bCOBQWK-IO12MxTNVa3DmsJZxmwRnc4iOKadsSK-mxy0QSC2eHl6TibvfnEJR-srppRfF4re3AsVqP2r5z6sKtJQZcY_dPYkaiw6acNIsPA4qRZpo1cDAYs6TizodwR6bYv9KAq71_rgHOf3gZIPYgoJoQB9Vx6lK1GiQMpQ8Tq-U0yxskQZLALgloM_MYzvWguKnkFqYSfmxwn03jqvk9DqbdH5qe2r6LkfIa3zEC7UX3ZjaBBECleMGdrSShBE_87HUPI62ze6i_lfbjCtsdSazad8p4o2JsADkI_cqFPUmZRbXDhMkmHKZYSouKbPmONlFvtDJHqV0IYLAzV-PBlJPqNJOK3lQF3R4inyqZHEDLzm47TrS1VyYc3I3z1rkRId7ipBuudzj4IVquJDaaKKKpsWDlvwmxUBhtQo-1NQr9pKEFWxk_LSfa506R_rj4Yu3gXixxXEDb44_A2EymopG-Qp1mJCetkSDSJWWHijj9DWPLPISKEkAPiAeDauDt9sh_nadBBnwXBoP9aWQ1v50IKXXuK-AssbkoLXr5moAIf0xo9_YQ0b6CxCrYKTXoGaQneBLUTyAv5nAH0kP1-rufWyyFqBir7IJZBX-w-ufZNw5ZB1NanOn7Lsv7Ts8i9Zketk86u2Ktm9a2wPoYwnjplsyA9c8lE4nMJ1n7tPuEMSs-c8GL4_D_BwZbj1jBWjfZ7SINQKBekuELf5yPOWS5e2y03yH8AKygcQRq5kPITCyPi7uWAfdN19xpF4beyhpz-YfVC85OYgsgqbdQVhFcJCkO7_v_xZ9vWbVPf6GXc36IMJGAoQHgKAtEaRalIYa5hyv9B98V4eAo2PkJ7kKJKHzOgY244nSe2qCQV8RONGp0Y94xfW_ypw-lcGm3v8JRr8mwc8W2CH75BKgX1vYRpZAbrIAb9kwoS9bCKkCCGUgNXHGbJdyZiVNYvQV_hhhsHTn092TAV22UPptDWqgaLfVDym9TLI1ldS3nv-Ia66ap7JCafLBZlZ_wFYC68RsHmO8ulR2kK4u4TqG-RFLAjIYcTh9KyHYksNk5QWf8ykV5LbWjPCOtrhlz2rIaLICOEKPhyswPKMb2yTtZHAHpUDk_nCA6tbqfKFCekO4knKok617zBimePy0MIfnmt9xbqXcWFdGXkyg9203r3GlV1FG_VgTofUkR0fTaUm8avH4H5WvoBe-rKLbE-ZNN1B-28FZMiIWtK2MQuMU9kM5spULzAOY7WevgEIIylp4tTnnjNSxGLKqr0FQHgb8tGFWliLzWqv2jpl_5Weyy8pKoPseerDksptN9cICjJ7vwSoGp52oKYytmLW4t0xvTDJxInLXouGTNi-GbRbYYGVQ6lPFD-80Nd8J1VuAwhNXtp5B-H90SI14gFzZchTVI6hNda8slYil5Kt10c1J1azV1Y7l1HdbI8caSCw5eSgYVJvnWNjAh9FtnfoFPMzAFpW1u6Op7Z9aKL1uHs5VGZdPCFhYQa11YBAYy6u1vUWgedCVE6vPdehEpx-ufJT8M2cYsipO1txIt5ZyXLl01zJWpHUJ48GfhgC8NUV15-KO64GFCfo3gtWjaSXKag3TYaSXGfmq2Ff92kNbaylfQFyvOp_NYU-JRtBGSHryUPypu-oTZkvUiV7xwQWkOPQTA6HROaVcZ2t95ax_DU_2rbQ-BIZItwqhynHdJAvy3oSXOT2iiqxBwxhRa_r4rZzu8b9vTCiHDLU_6YnRebiKoLxtaJssFnP7aF4MJwWEE4kXPiIx6uRSe90OQhm-t6q7K2wGp73oKLyPh8gn5XsHg06-YStCMxsDMsAQK3E6ffIPUXGrwqCjeNHSRim-qN9zzbxKUdtvf4rr5_Q4VSmJpUDr2JurbHwYe9a8q4m9pWvPe2ktE7Mtm_WLz-mrveGiQIOsp9mBdN_OwzePFXBEfoCVwxYADtbNQmAW0_dMKVF4TKDhXhm5m4elCpZ4jcOudatmyS1CropZQYNqiA8T_5oTMKhHy3a5YUHM_xajUETyrosz9hSkj2UbhGNezBqL9w6k67HzDf5jtN22q8AsGRcuRqUlmVYkoKg7mQtQ8YyGyjt1iK2KGYDiHB4gza8IcBUNN_6S8CiGbOxqD03jigeaotnJNIgRs5DhfXL1Z8WNiIfBYXQtFZWmE9uaLW2_iEMn749fJTNkI8_CpWEQPWAMTVWts6qbEQQqe0kPDDc0Qsm6b8ABPvww8yeN0mQw4eXwPrstHNJ0Py12u1U_Z7u1CP-yUVx6dP2xgZ05eMAVpUDA0NznYbJYHK5e1oNRu2BQ0k9IBt8Z2GN2TELUcA15i_xkiQ_j41d4k-x0gSQ8Qrw1yVrNl5wLLEaW9d-M1wrMXBbGBmAjziN-fq-V-HhjVuhGSLU3NR-RhP7aqEgAVbpL9c8RrRZPmyz21NMsDlMYFPklQX_jdaWhtCvrG5U1103f-03CTBXKcCfjWi1zEvVxFEsymza1WqdNqYFyNNEkW3htYkeojqbXs0RoHVOHqG2enWYvVJOL_PvTBLQcRZ5MeeeDg8zeTxJS9bkW_y1
' Generated on: 2025-12-11T14:22:49.130181400

@startuml
skinparam classAttributeIconSize 0
hide circle

class Config {
  +{static} WINDOW_WIDTH: int = 700
  +{static} WINDOW_HEIGHT: int = 700
  +{static} WINDOW_TITLE: String = "Galaga - @jules1univ"
  +{static} PLAYER_INITIAL_LIFE: int = 3
  +{static} SPRITE_SCALE_DEFAULT: float = 2.5f
  +{static} SPRITE_SCALE_ICON: float = 1.5f
  +{static} HEIGHT_HUD: float = 50.f
  +{static} HEIGHT_FUD: float = 50.f
  +{static} SPEED_LOADING: long = 200
  +{static} SPEED_PLAYER: float = 600.f
  +{static} SPEED_STAR: float = 200.0f
  +{static} SPEED_BULLET: float = 500.f
  +{static} SPEED_ENEMY_FACTOR: float = 500.f
  +{static} DELAY_ACTION_INDEX: int = 3
  +{static} DELAY_ENTER_INDEX: int = 2
  +{static} DELAY_ENEMY_ENTER: float = .15f
  +{static} DELAY_SHOOT_PLAYER: float = .5f
  +{static} DELAY_PLAYER_HIT: float = 3.f
  +{static} DELAY_ENEMY_FORMATION: float = 5.f
  +{static} DELAY_ENEMY_COOLDOWN_FACTOR_ATTACK: float = 0.01f
  +{static} DELAY_ENEMY_COOLDOWN_FACTOR_MISSILE: float = 0.001f
  +{static} TIME_BLINKSTAR_MAX: float = 10.0f
  +{static} TIME_BLINKSTAR_MIN: float = 3.0f
  +{static} SIZE_SKY_GRID: int = 50
  +{static} SIZE_FONT_XLARGE: float = 48.f
  +{static} SIZE_FONT_LARGE: float = 32.f
  +{static} SIZE_FONT_TEXT: float = 24.f
  +{static} SIZE_PARTICLE: Size = Size.of(3.f, 3.f)
  +{static} POSITION_LOCK_THRESHOLD: float = 1.f
  +{static} POSITION_NEAR_THRESHOLD: float = 10.f
  +{static} POSITION_ENEMY_LEFT: Position = Position.of(-100.f, 600.f)
  +{static} POSITION_ENEMY_RIGHT: Position = Position.of(800.f, 600.f)
  +{static} POSITION_ZIG_ZAG: List<Position> = List.of(Position.of(20.f, 350.f), Position.of(680.f, 400.f), Position.of(20.f, 450.f), Position.of(680.f, 500.f), Position.of(20.f, 550.f), Position.of(680.f, 600.f))
  +{static} COLOR_BULLET: Color = new Color(255, 0, 0)
  +{static} VARIANT_FONT_TEXT: String = "text"
  +{static} VARIANT_FONT_LARGE: String = "large"
  +{static} VARIANT_FONT_XLARGE: String = "xlarge"
  +{static} SPRITE_SHIP: ResourceAlias = ResourceAlias.file("ship", "resources/sprites/ship.spr", "https://raw.githubusercontent.com/jules1univ/Galaga/refs/heads/master/resources/sprites/ship.spr")
  +{static} SPRITE_MEDAL: ResourceAlias = ResourceAlias.file("medal", "resources/sprites/medal.spr", "https://raw.githubusercontent.com/jules1univ/Galaga/refs/heads/master/resources/sprites/medal.spr")
  +{static} SPRITES_ENEMY: List<ResourceAlias> = ResourceAlias.folder(EnemyType.class, "resources/sprites/%s.spr", "https://raw.githubusercontent.com/jules1univ/Galaga/refs/heads/master/resources/sprites/%s.spr")
  +{static} FONTS: List<ResourceAlias> = ResourceAlias.file("font", "resources/fonts/default.ttf", "https://st.1001fonts.net/download/font/bytebounce.medium.ttf").variant(ResourceVariant.of(Config.VARIANT_FONT_TEXT, Config.SIZE_FONT_TEXT), ResourceVariant.of(Config.VARIANT_FONT_LARGE, Config.SIZE_FONT_LARGE), ResourceVariant.of(Config.VARIANT_FONT_XLARGE, Config.SIZE_FONT_XLARGE))
  +{static} LEVELS: List<ResourceAlias> = ResourceAlias.folder("level%d", 1, 2, "resources/levels/%s.lvl", "https://raw.githubusercontent.com/jules1univ/Galaga/refs/heads/master/resources/levels/%s.lvl")
  +{static} BEST_SCORE: ResourceAlias = ResourceAlias.file("best_score", "resources/highscore/highscore.sc", "https://raw.githubusercontent.com/jules1univ/Galaga/refs/heads/master/resources/highscore/highscore.sc")
}

class Bullet {
  -angle: float
  -shooter: SpriteEntity
  -boxSize: Size
  --
  +Bullet(shooter: SpriteEntity)
  +getShooter(): Entity
  +isOutOfBounds(): boolean
  +init(): boolean
  +update(dt: float): void
  +draw(): void
}

class BulletManager {
  -bullets: List<Bullet> = new ArrayList<>()
  --
  +BulletManager()
  +shoot(shooter: SpriteEntity): void
  +iterator(): Iterator<Bullet>
  +removeAll(removeBullet: List<Bullet>): void
  +isEmpty(): boolean
  +init(): boolean
  +update(dt: float): void
  +draw(): void
}

abstract class Enemy {
  #type: EnemyType
  #lock: Position
  #speed: float
  #formationSpeed: float
  #scoreValue: int
  #state: EnemyState
  -actionIndex: int
  -indexTimer: float
  -action: boolean
  -debugFont: Font
  --
  +Enemy(type: EnemyType, setting: EnemySetting, formationSpeed: float)
  +hasDoneAction(): boolean
  +resetAction(): void
  +getState(): EnemyState
  +getType(): EnemyType
  +getScoreValue(): int
  -isInLockPosition(): boolean
  -animateToLockPosition(dt: float): void
  #updateAction(dt: float): void
  +init(): boolean
  +update(dt: float): void
  +draw(): void
}

class EnemyBee {
  -missileCooldown: float
  -missileTimer: float = 0.f
  -zigZagIndex: int = 0
  --
  +EnemyBee(setting: EnemySetting, formationSpeed: float, missileCooldown: float)
  #updateAction(dt: float): void
}

class EnemyButterFly {
  -missileCooldown: float
  -missileTimer: float = 0.f
  -target: Position
  --
  +EnemyButterFly(setting: EnemySetting, formationSpeed: float, missileCooldown: float)
  #updateAction(dt: float): void
}

class EnemyMoth {
  -attackCooldown: float
  -attackTimer: float = 0.f
  -target: Position
  --
  +EnemyMoth(setting: EnemySetting, formationSpeed: float, attackCooldown: float)
  #updateAction(dt: float): void
}

class EnemySetting {
  -type: EnemyType
  -lockPosition: Position
  -actionIndex: int
  -enterIndex: int
  -scoreValue: int
  -speed: float
  --
  +EnemySetting(type: EnemyType, lock: Position, actionIndex: int, enterIndex: int, value: int, speed: float)
  +{static} createEnemySetting(line: String, enemyActionIndex: Map<EnemyType,Integer>, enterIndex: int, level: Level): EnemySetting
  +getType(): EnemyType
  +getLockPosition(): Position
  +getActionIndex(): int
  +getEnterIndex(): int
  +getScoreValue(): int
  +getSpeed(): float
}

class Particle {
  -color: Color
  -duration: float
  -speed: float
  -angle: float
  --
  +Particle(position: Position, color: Color, duration: float, speed: float, angle: float)
  +isExpired(): boolean
  +init(): boolean
  +update(dt: float): void
  +draw(): void
}

class ParticlesManager {
  -particles: ArrayList<Particle> = new ArrayList<>()
  --
  +ParticlesManager()
  +createExplosion(entity: SpriteEntity): void
  +createExplosion(entity: Entity, color: Color): void
  +createExplosion(position: Position, size: Size, color: Color): void
  +update(dt: float): void
  +draw(): void
}

class Player {
  -life: int
  -score: int
  -medals: int
  -shootActive: boolean
  -cooldownTimer: float
  -hitTimer: float
  -debugFont: Font
  --
  +Player()
  +isShootingActive(): boolean
  +setShooting(shootActive: boolean): void
  +getLife(): int
  +getScore(): int
  +getMedals(): int
  +onKillEnemy(enemy: Enemy): void
  +onFinishLevel(): void
  +onHit(): void
  +isDead(): boolean
  +reset(): void
  +init(): boolean
  +update(dt: float): void
  +draw(): void
}

class Sky {
  -stars: List<Star> = new ArrayList<>()
  -gridSize: int
  --
  +Sky(gridSize: int)
  +init(): boolean
  +update(dt: float): void
  +draw(): void
}

class Star {
  -color: Color
  -initialY: float
  -time: float
  -blinkDelay: float
  -active: boolean
  --
  +Star(position: Position, size: float, color: Color)
  +init(): boolean
  +update(dt: float): void
  +draw(): void
}

class Galaga {
  +Galaga()
  +{static} getContext(): AppContext<State,PageState>
  +{static} main(args: String[]): void
  -load(): boolean
  #init(): boolean
  #update(dt: float): void
}

class Level {
  -name: String
  -formationSpeed: float
  -attackCooldown: float
  -missileCooldown: float
  -enemies: List<EnemySetting> = new ArrayList<>()
  --
  -Level(name: String, formationSpeed: float, attackCooldown: float, missileCooldown: float)
  +{static} createLevel(in: InputStream): Level
  -{static} createLevelFromHeader(lineHeader: String): Level
  +getName(): String
  +getFormationSpeed(): float
  +getAttackCooldown(): float
  +getMissileCooldown(): float
  +getEnemies(): List<Enemy>
}

class LevelResource {
  +{static} NAME: String = "level"
  --
  +LevelResource(alias: ResourceAlias, callback: ResourceCallback)
  +load(): boolean
  +write(data: Level): boolean
}

class FUD {
  -lifeIcons: IconGroup
  -medalIcons: IconGroup
  -ship: Sprite
  -medal: Sprite
  --
  +FUD()
  -createArrayIcon(sprite: Sprite, length: int): List<Icon>
  +init(): boolean
  +update(dt: float): void
  +draw(): void
}

class Game {
  -sky: Sky
  -player: Player
  -enemies: List<Enemy>
  -bullets: BulletManager
  -particles: ParticlesManager
  -levelIndex: int = -1
  -fud: FUD
  -hud: HUD
  --
  +Game()
  +onActivate(): boolean
  +onDeactivate(): boolean
  -loadNextLevel(): boolean
  +update(dt: float): void
  +draw(): void
}

class HUD {
  -fps: Text
  -score: Text
  -bestScore: Text
  -textFont: Font
  --
  +HUD()
  +init(): boolean
  +update(dt: float): void
  +draw(): void
}

class Loading {
  -text: Text
  --
  +Loading()
  +onActivate(): boolean
  +onDeactivate(): boolean
  +setFont(font: Font): void
  +update(dt: float): void
  +draw(): void
}

class Menu {
  -gameMode: TextSelect
  -titleFont: Font
  --
  +Menu()
  +update(dt: float): void
  +draw(): void
  +onActivate(): boolean
  +onDeactivate(): boolean
}

class Score {
  -value: int
  --
  +Score(value: int)
  +{static} loadScore(in: InputStream): Score
  +{static} saveScore(data: Score, out: OutputStream): boolean
  +getValue(): int
  +compareTo(o: Score): int
}

class ScoreResource {
  +{static} NAME: String = "score"
  --
  +ScoreResource(alias: ResourceAlias, callback: ResourceCallback)
  +load(): boolean
  +write(data: Score): boolean
}

class State {
  +level: Level
  +player: Player
  +bullets: BulletManager
}

BulletManager o-- Bullet
Enemy ..> EnemySetting
EnemyBee --|> Enemy
EnemyBee ..> EnemySetting
EnemyButterFly --|> Enemy
EnemyButterFly ..> EnemySetting
EnemyMoth --|> Enemy
EnemyMoth ..> EnemySetting
EnemySetting ..> Level
EnemySetting ..> EnemySetting
ParticlesManager o-- Particle
Player ..> Enemy
Sky o-- Star
Level o-- EnemySetting
Level ..> Level
LevelResource ..> Level
Game *-- Sky
Game *-- Player
Game o-- Enemy
Game *-- BulletManager
Game *-- ParticlesManager
Game *-- FUD
Game *-- HUD
Score ..> Score
ScoreResource ..> Score
State --> Level
State --> Player
State o-- BulletManager
@enduml