' Generated by UML Generator
' Encoded: hHbhJ-D8ydj-XRLe9NCGb9dHxQwYEMu3SOWrIK34Ey3TdAB6xYHM73ko7HZsyT-tgb-kTXnWvlW0SLTNrxkhghj_BKgMbzjrqYfMSRfXELixOSAAebUMUNo_BRaVPkaq_fqxdTOoZhWJndcOy5PBO3czpUOyIql-jNJ-Q3bEUmu4U1V10_n2KCxJYESyxphNwWkXm6nRTXqVVpxnfr5Sb3oLKo1I2JGkOFqKFn7MXdz75JEtnkSGfmjU2dotJk2mwpnaSOGu2rwA1UwX9IJ2jNGuHIJ5AI4bmXl4nNd9zf3A_1UnaE0Yx7EaHoxRR8G4IHooCivIhS4LItdYRl2_c1TZhG0GPVT5cREmT0nrJK4wu0zKFWx_Sa9fgIvnqST_dmBAmQwF3chy4FGOH-MowyHfYQCbZnVBqWpBk4o0n1HY95rG_sXXN0lZsAce7Jk4bj3QY0oMrFuzjEGM9XMoWuK2f6pJjnqi4Gw9U0YzGGaGAbL0q508Gc1YCxY4Mb5c6p8-YDDOpDzdMS9PYg3j9aBdHw1Gb6tl4n9j1r7E7btYFECpOMNfi7APSnPrdK3y8gGU6c8JRTCKT36SdNyvSvOKrjwGeTCSM2yeTWJqgPuR1XOvpzQRBELfwGBVYvnjbd5Ox0z5BmMVF0cb3hvsdNcICH4hJ-HRXO4Pwr3G0AcBfEGAoSCiII3jtCJWF4trs7aoNvHY5LfYQFd98WI18tdOA75nkIqlvsVPDeqAsyqOBfVpEOJVBKveUIlmNHriueq2guWpqDsGEdecf8xg8LLpmdIJnoMdhYW4fAjc4CBI1MuTuuGYP7GiVK09IKzWdXD0iRKqDGJta61TrIbIfS03-8q6URPML5AHXNI2s31qezdE5VtcFQGJzDwgSy_2rTbsFiUw8tzvvA_PGaoIU7xV5mGWqHHTPyYAvPXjFcgX1W0-XQsMyaSpTogi8LQCEU25i6vG3Om1JJbfAbNtV17J3NS4o7G85PRbBeHi1kAVum_Tkr33WA6B8ami8nPGfsLUtIbX0UHH6PAoAXXBgzI7PaOSQ_hO-QfozfFwhOb4cI25QnwMtxfDNoIguiKEv6CdazlHK97ZEpEcORsNgWfmGzQa1ODkGauYo82BCP9gWOLniasIsWwIUmT3twKXlYEUdMfUKQpQuPBbGIQCvePT1uU7oeYwRK6nS8Mz0MeQZLaAqBpMFiHfKNPh69M2qXSG-NItIEGz-mLDqhR8kJl5tmUUB0r9Wb6eneJxSyPp1drXwOxrBTmg6HcxrRj0QReLVohwsMCgqyYKbnzzw5v0UceH12kB5FUQnTasJY9fNq2pO18rvs6MHy7JvjaMe2wMD71S00ZbSa50dHo8lW2zodbHy0Xt0U1w3rpWw7G32DSSi9_50DdsJelcGmfVRq5sePYga5QWka3LmrNDKmfxh-JHPvPirMPym4zIlu0TK260Q9kBLaYNKu4KeukhiMoYA76NqZrsBAh7JftcuKk56nPBibRnBmPG_uibZsWBO9GTPOlQjaooXRi6RudqOo8V9hUm6G5zAZu9MxDIhQglRa9zP3ascwz1vNaEwMSFej4ZYDNvXoZ2YZ8WFe1exbW84KzAzYn6u8-zMN0vc_GcbmJftQpJwUY_auvnhbcdlDIa3cm4NZREWFlwMY94C95ZeOWAVwseAnHZ1JZDp6Ffq6hHoFliZMRlPbUzOAZj1qhySFBb2mYJRVEG5r--9Fo19_httKdoaFpGGENzjr1vlqjbElIlPjEhQp_mmAXZZr8gbl6c0VjvXgfCm0UiFe6HJM7izNkZVGpNF6994_uhMOhrkpozYJU-cvtrfjvh2VrOx5AHzdu55SlaFqQxDkzxWzvleq1RONhU6tagGG2r3oVpvx3zyyl9h7zvCn7BPeFUUN1vNQq--NdFwaztiujhlp-R-l_nH4a0v5yw5kwDFm72ink_Z-f9b9yxZJX3pxyO1lkGXh_r3OOMx9-Tcbw3ro1TZNfttZNexddz2ksdpXuyV-87FiJBo1yO9J_O4HpqhcVZtktiREHFFitw7Yoi2B-3v35lmFSdpVWVcj4lFtjraTztTaW7tcqm6rnE0iidxtwnaVm0lLp7-l1JuscShyq9aFE8dCDKNTDNEL1jkn8T2wyyg8MhM-lW5gxkTW_fiCAjhJvsw5evgZhoYZ7KB2BKuHkSWudMPrnTjkcH-tr2rQXkovBdW-I9qjQmD-4mpieb8Ox3_vVkLSAUT7-Qn7FZzNO13MKr2hFr9k7G-8n4kZ9muMX9mzm1Z82CVJAP8YqRT6uJ99DlukRfIde1hufpR7oWuyLBGjDgz_ASYJxODDlwP5mTprPFxYAFewavCx-TU229b8-URAkkqsoa-oHELz1MC797reOz73zmAa8RfOfPihC7aL7ZSLkgstIyVZCb8MKh7q1j9nSsRL5uAG0Hn6rGDBHkaSd43RribXGQLv0PUuam1uZaVeU2RLHGHZa-TXHkmjE5kQtUStEDMyw-ZvZdsVfQpYk-Bzfmg6qutq0Kuv67x4qzlEU5t68LI6Wx_3vjzuWovkaMPAbQTlEaKuzXQoirHAO2tT8J6RbJml4oo-FVixJ4E456LraHwvlk1vv3iMkQ4Lettr7jsG2xLrRg_co7Ikq4QXy-vPfpEDL27jmdE-JZHib9d4clq4bwr7WJDrwmX2sOIlYOUqSPY_0ET5GDX1DNO2j8WVYz4Q7VLSK28HpgJynrOXNLw5I4wHPg3EmouKFy7ifluHd9sltM9nroGcLnwi8fkz26_-__tlhfHLX1MeVUySWBtNmjJlHJkrrgix9auUeSs4RYTaUdehWeueJlm9jifwhI2B8zb4HIbeJXX52r-wb6QOwT1bcEdIP9TBMUgBTEwobiO16lNzptB1vsNH_RhEn9JsgEG3jkZbWKlMMxs7HJKeKt2Vw6Ats1-CmTvH6X9A4RQ37ua0i0r6lrIHA7M64mfQA8ABugbmg957R3_MJz0OGwJAn1LrR6bVEd5A5-RIdbebs9khu-8YL5kQ-M0s0HUTd_HxjTlQtKuEQUl0RVUIatx-0d9wVLGtCTQjuywSEsug_8MrFjzgabMdt2S94lhegIuQ8Uof2v_6nP3sZjzf_x9avrWsDUeYmh6IYIDZQoeFNr5SpYg2_VaRnzAMxFPsQ-9Sz-GdYBe3aTARrWrAgTRUepuan2WEf0iKiRMtBBN30M8a6BsX8DCPt5vh4-hXHi3MlJGpKj-X_HcT1PLVC4Y3fNmN4XhNu4Z0MG35NmAmXABvKcA5Zyo71O3LK0wo2LbQQYGHDKfYLgoJs9qQHu_mhHi5qdVmC
' URL: http://www.plantuml.com/plantuml/uml/hHbhJ-D8ydj-XRLe9NCGb9dHxQwYEMu3SOWrIK34Ey3TdAB6xYHM73ko7HZsyT-tgb-kTXnWvlW0SLTNrxkhghj_BKgMbzjrqYfMSRfXELixOSAAebUMUNo_BRaVPkaq_fqxdTOoZhWJndcOy5PBO3czpUOyIql-jNJ-Q3bEUmu4U1V10_n2KCxJYESyxphNwWkXm6nRTXqVVpxnfr5Sb3oLKo1I2JGkOFqKFn7MXdz75JEtnkSGfmjU2dotJk2mwpnaSOGu2rwA1UwX9IJ2jNGuHIJ5AI4bmXl4nNd9zf3A_1UnaE0Yx7EaHoxRR8G4IHooCivIhS4LItdYRl2_c1TZhG0GPVT5cREmT0nrJK4wu0zKFWx_Sa9fgIvnqST_dmBAmQwF3chy4FGOH-MowyHfYQCbZnVBqWpBk4o0n1HY95rG_sXXN0lZsAce7Jk4bj3QY0oMrFuzjEGM9XMoWuK2f6pJjnqi4Gw9U0YzGGaGAbL0q508Gc1YCxY4Mb5c6p8-YDDOpDzdMS9PYg3j9aBdHw1Gb6tl4n9j1r7E7btYFECpOMNfi7APSnPrdK3y8gGU6c8JRTCKT36SdNyvSvOKrjwGeTCSM2yeTWJqgPuR1XOvpzQRBELfwGBVYvnjbd5Ox0z5BmMVF0cb3hvsdNcICH4hJ-HRXO4Pwr3G0AcBfEGAoSCiII3jtCJWF4trs7aoNvHY5LfYQFd98WI18tdOA75nkIqlvsVPDeqAsyqOBfVpEOJVBKveUIlmNHriueq2guWpqDsGEdecf8xg8LLpmdIJnoMdhYW4fAjc4CBI1MuTuuGYP7GiVK09IKzWdXD0iRKqDGJta61TrIbIfS03-8q6URPML5AHXNI2s31qezdE5VtcFQGJzDwgSy_2rTbsFiUw8tzvvA_PGaoIU7xV5mGWqHHTPyYAvPXjFcgX1W0-XQsMyaSpTogi8LQCEU25i6vG3Om1JJbfAbNtV17J3NS4o7G85PRbBeHi1kAVum_Tkr33WA6B8ami8nPGfsLUtIbX0UHH6PAoAXXBgzI7PaOSQ_hO-QfozfFwhOb4cI25QnwMtxfDNoIguiKEv6CdazlHK97ZEpEcORsNgWfmGzQa1ODkGauYo82BCP9gWOLniasIsWwIUmT3twKXlYEUdMfUKQpQuPBbGIQCvePT1uU7oeYwRK6nS8Mz0MeQZLaAqBpMFiHfKNPh69M2qXSG-NItIEGz-mLDqhR8kJl5tmUUB0r9Wb6eneJxSyPp1drXwOxrBTmg6HcxrRj0QReLVohwsMCgqyYKbnzzw5v0UceH12kB5FUQnTasJY9fNq2pO18rvs6MHy7JvjaMe2wMD71S00ZbSa50dHo8lW2zodbHy0Xt0U1w3rpWw7G32DSSi9_50DdsJelcGmfVRq5sePYga5QWka3LmrNDKmfxh-JHPvPirMPym4zIlu0TK260Q9kBLaYNKu4KeukhiMoYA76NqZrsBAh7JftcuKk56nPBibRnBmPG_uibZsWBO9GTPOlQjaooXRi6RudqOo8V9hUm6G5zAZu9MxDIhQglRa9zP3ascwz1vNaEwMSFej4ZYDNvXoZ2YZ8WFe1exbW84KzAzYn6u8-zMN0vc_GcbmJftQpJwUY_auvnhbcdlDIa3cm4NZREWFlwMY94C95ZeOWAVwseAnHZ1JZDp6Ffq6hHoFliZMRlPbUzOAZj1qhySFBb2mYJRVEG5r--9Fo19_httKdoaFpGGENzjr1vlqjbElIlPjEhQp_mmAXZZr8gbl6c0VjvXgfCm0UiFe6HJM7izNkZVGpNF6994_uhMOhrkpozYJU-cvtrfjvh2VrOx5AHzdu55SlaFqQxDkzxWzvleq1RONhU6tagGG2r3oVpvx3zyyl9h7zvCn7BPeFUUN1vNQq--NdFwaztiujhlp-R-l_nH4a0v5yw5kwDFm72ink_Z-f9b9yxZJX3pxyO1lkGXh_r3OOMx9-Tcbw3ro1TZNfttZNexddz2ksdpXuyV-87FiJBo1yO9J_O4HpqhcVZtktiREHFFitw7Yoi2B-3v35lmFSdpVWVcj4lFtjraTztTaW7tcqm6rnE0iidxtwnaVm0lLp7-l1JuscShyq9aFE8dCDKNTDNEL1jkn8T2wyyg8MhM-lW5gxkTW_fiCAjhJvsw5evgZhoYZ7KB2BKuHkSWudMPrnTjkcH-tr2rQXkovBdW-I9qjQmD-4mpieb8Ox3_vVkLSAUT7-Qn7FZzNO13MKr2hFr9k7G-8n4kZ9muMX9mzm1Z82CVJAP8YqRT6uJ99DlukRfIde1hufpR7oWuyLBGjDgz_ASYJxODDlwP5mTprPFxYAFewavCx-TU229b8-URAkkqsoa-oHELz1MC797reOz73zmAa8RfOfPihC7aL7ZSLkgstIyVZCb8MKh7q1j9nSsRL5uAG0Hn6rGDBHkaSd43RribXGQLv0PUuam1uZaVeU2RLHGHZa-TXHkmjE5kQtUStEDMyw-ZvZdsVfQpYk-Bzfmg6qutq0Kuv67x4qzlEU5t68LI6Wx_3vjzuWovkaMPAbQTlEaKuzXQoirHAO2tT8J6RbJml4oo-FVixJ4E456LraHwvlk1vv3iMkQ4Lettr7jsG2xLrRg_co7Ikq4QXy-vPfpEDL27jmdE-JZHib9d4clq4bwr7WJDrwmX2sOIlYOUqSPY_0ET5GDX1DNO2j8WVYz4Q7VLSK28HpgJynrOXNLw5I4wHPg3EmouKFy7ifluHd9sltM9nroGcLnwi8fkz26_-__tlhfHLX1MeVUySWBtNmjJlHJkrrgix9auUeSs4RYTaUdehWeueJlm9jifwhI2B8zb4HIbeJXX52r-wb6QOwT1bcEdIP9TBMUgBTEwobiO16lNzptB1vsNH_RhEn9JsgEG3jkZbWKlMMxs7HJKeKt2Vw6Ats1-CmTvH6X9A4RQ37ua0i0r6lrIHA7M64mfQA8ABugbmg957R3_MJz0OGwJAn1LrR6bVEd5A5-RIdbebs9khu-8YL5kQ-M0s0HUTd_HxjTlQtKuEQUl0RVUIatx-0d9wVLGtCTQjuywSEsug_8MrFjzgabMdt2S94lhegIuQ8Uof2v_6nP3sZjzf_x9avrWsDUeYmh6IYIDZQoeFNr5SpYg2_VaRnzAMxFPsQ-9Sz-GdYBe3aTARrWrAgTRUepuan2WEf0iKiRMtBBN30M8a6BsX8DCPt5vh4-hXHi3MlJGpKj-X_HcT1PLVC4Y3fNmN4XhNu4Z0MG35NmAmXABvKcA5Zyo71O3LK0wo2LbQQYGHDKfYLgoJs9qQHu_mhHi5qdVmC
' Generated on: 2025-11-28T16:11:32.780548500

@startuml
skinparam classAttributeIconSize 0
hide circle

class AppContext {
  -frame: AppFrame
  -renderer: Renderer
  -input: InputKeyListener
  -state: GameState
  --
  +AppContext(frame: AppFrame)
  +setState(state: GameState): void
  +getFrame(): AppFrame
  +getRenderer(): Renderer
  +getInput(): InputKeyListener
  +getState(): GameState
}

class AppFrame {
  +AppFrame(app: Application)
  +setPanel(panel: AppPanel): void
}

abstract class Application {
  -{static} context: AppContext<?>
  #frame: AppFrame
  #panel: AppPanel
  #width: int
  #height: int
  #title: String
  --
  +Application(title: String, width: int, height: int)
  +{static} getContext(): AppContext<State>
  #setTitle(title: String): void
  +getTitle(): String
  +getWidth(): int
  +getHeight(): int
  +start(): void
  +stop(): void
  #init(): boolean
  #update(dt: double): void
  #draw(): void
}

class AppPanel {
  -thread: Thread
  -app: Application
  -running: boolean = false
  --
  +AppPanel(app: Application)
  +start(): void
  +stop(): void
  +run(): void
  #paintComponent(g: Graphics): void
}

abstract class Entity {
  #x: float
  #y: float
  #width: float
  #height: float
  --
  +Entity()
  +collideWith(x: float, y: float, width: float, height: float): boolean
  +collideWith(e: Entity): boolean
  +isOutOfBounds(): boolean
  +getOffsetX(): float
  +getOffsetY(): float
  +getWidth(): float
  +getHeight(): float
  +init(): boolean
  +update(dt: double): void
  +draw(): void
}

abstract class SpriteEntity {
  #sprite: Sprite
  #angle: float
  #scale: float
  --
  +SpriteEntity()
  +getSprite(): Sprite
  +getAngle(): float
  +getScale(): float
  #loadFromSprite(name: String, path: String): Sprite
  +draw(): void
}

class Renderer {
  -frame: AppFrame
  -backBuffer: BufferedImage
  -g: Graphics2D
  -fonts: HashMap<String, Font> = new HashMap<>()
  -fontMetrics: FontMetrics
  --
  +Renderer(frame: AppFrame)
  +begin(): void
  +end(): void
  +clear(color: Color): void
  +setFont(fontName: String, size: int): Renderer
  +getTextWidth(text: String): int
  +drawText(text: String, x: int, y: int, color: Color): Renderer
  +drawRect(x: float, y: float, width: float, height: float, color: Color): Renderer
  +drawSprite(sprite: Sprite, offsetX: float, offsetY: float, scale: float): Renderer
  +drawSpriteEntity(e: SpriteEntity): Renderer
}

class Sprite {
  -image: BufferedImage = null
  --
  +Sprite()
  +load(path: String, scale: float): boolean
  +getWidth(): int
  +getHeight(): int
  -charToColor(c: char): Color
  +getImage(): BufferedImage
}

class SpriteManager {
  -{static} inst: SpriteManager = null
  -sprites: Map<String, Sprite> = new HashMap<>()
  --
  -SpriteManager()
  +{static} getInstance(): SpriteManager
  +load(name: String, path: String, scale: float): boolean
  +load(name: String, path: String): boolean
  +get(name: String): Sprite
}

class InputKeyListener {
  -keysDown: HashSet<Integer> = new HashSet<>()
  -sb: StringBuilder = new StringBuilder()
  -recordTyping: boolean = false
  --
  +InputKeyListener()
  +isKeyDown(key: int): boolean
  +keyPressed(e: KeyEvent): void
  +keyReleased(e: KeyEvent): void
  +keyTyped(e: KeyEvent): void
  +startTyping(): void
  +stopTyping(): void
  +getTypedText(): String
}

class AnimatedValue {
  -value: float
  -target: float
  -duration: double
  -time: double
  --
  +AnimatedValue(value: float, target: float, duration: double)
  +update(dt: double): void
  +getValue(): float
  +isFinished(): boolean
}

class Log {
  -{static} log(message: String, status: LogStatus): void
  +{static} message(message: String): void
  +{static} warning(message: String): void
  +{static} error(message: String): void
}

class Time {
  -{static} lastTime: double = 0
  -{static} deltaTime: double = 0
  -{static} TIME_TO_NANO: double = 1_000_000_000.0
  --
  +{static} update(): void
  +{static} reset(): void
  +{static} getDeltaTime(): double
  +{static} getFrameRate(): double
}

class Config {
  +{static} LEVEL_1_PATH: String = ".\\resources\\levels\\level1.lvl"
  +{static} LEVEL_2_PATH: String = ".\\resources\\levels\\level2.lvl"
  +{static} SHIP_SPRITE_NAME: String = "ship"
  +{static} SHIP_PATH: String = ".\\resources\\sprites\\ship.spr"
  +{static} MEDAL_SPRITE_NAME: String = "medal"
  +{static} MEDAL_PATH: String = ".\\resources\\sprites\\medal.spr"
  +{static} ENEMY_BASE_PATH: String = ".\\resources\\sprites\\%s.spr"
  +{static} LEVEL_BASE_PATH: String = ".\\resources\\levels\\level%d.lvl"
  +{static} DEFAULT_SPRITE_SCALE: float = 3.f
  +{static} DEFAULT_SPRITE_ICON_DOWNSCALE_FACTOR: float = .7f
  +{static} DEFAULT_SKY_GRID_SIZE: int = 80
  +{static} WINDOW_WIDTH: int = 700
  +{static} WINDOW_HEIGHT: int = 700
  +{static} HUD_HEIGHT: float = 50.f
  +{static} FUD_HEIGHT: float = 50.f
  +{static} PLAYER_SPEED: float = 600.f
  +{static} PLAYER_INITIAL_LIFE: int = 3
  +{static} STAR_MAX_BLINK_DELAY: float = 10.0f
  +{static} STAR_MIN_BLINK_DELAY: float = 3.0f
  +{static} STAR_MOVE_SPEED: float = 200.0f
  +{static} TEXT_FONT_SIZE: int = 18
  +{static} TITLE_FONT_SIZE: int = 36
}

abstract class Enemy {
  #speed: float
  #value: int
  #type: EnemyType
  #lockX: float
  #lockY: float
  --
  +Enemy(type: EnemyType, lockX: float, lockY: float, value: int, speed: float)
  +init(): boolean
  +update(dt: double): void
  +draw(): void
}

class EnemyBee {
  +EnemyBee(lockX: float, lockY: float, value: int, speed: float)
}

class EnemyButterFly {
  +EnemyButterFly(lockX: float, lockY: float, value: int, speed: float)
}

class EnemyMoth {
  +EnemyMoth(lockX: float, lockY: float, value: int, speed: float)
}

class Player {
  -life: int
  -score: int
  -completedLevels: int
  --
  +Player()
  +getLife(): int
  +getScore(): int
  +getCompletedLevels(): int
  +init(): boolean
  +update(dt: double): void
  +draw(): void
}

class Sky {
  -stars: List<Star> = new ArrayList<>()
  -size: int
  --
  +Sky(gridSize: int)
  +init(): boolean
  +update(dt: double): void
  +draw(): void
}

class Star {
  -color: Color
  -time: float
  -blinkDelay: float
  -active: boolean
  -initialY: float
  --
  +Star(x: float, y: float, size: float, color: Color)
  +init(): boolean
  +update(dt: double): void
  +draw(): void
}

class FUD {
  -ship: Sprite
  -medal: Sprite
  -shipScaledHeight: int
  -shipScaledWidth: int
  -medalScaledHeight: int
  -medalScaledWidth: int
  --
  +FUD()
  +init(): boolean
  +update(dt: double): void
  -drawPlayerIcons(length: int, width: int, height: int, sprite: Sprite, fromRight: boolean): void
  +draw(): void
}

class HUD {
  -fps: Text
  -score: Text
  -bestScore: Text
  --
  +HUD()
  +init(): boolean
  +update(dt: double): void
  +draw(): void
}

class Menu {
}

class Text {
  -color: Color
  -size: int
  -initialY: float
  -initialX: float
  -text: String
  -horizontal: TextPosition
  -vertical: TextPosition
  --
  +Text(text: String, x: float, y: float, size: int, color: Color)
  +setText(text: String): void
  +getText(): String
  +setCenter(horizontal: TextPosition, vertical: TextPosition): void
  -updateTextPosition(): void
  +init(): boolean
  +update(dt: double): void
  +draw(): void
}

class Galaga {
  -levelLoader: LevelLoader
  -sky: Sky
  -player: Player
  -enemies: List<Enemy>
  -fud: FUD
  -hud: HUD
  --
  +Galaga()
  +{static} getContext(): AppContext<State>
  +{static} main(args: String[]): void
  #init(): boolean
  #update(dt: double): void
  #draw(): void
}

class Level {
  -name: String
  -formationSpeed: float
  -attackCooldown: int
  -missileCooldown: int
  -enemies: List<Enemy> = new LinkedList<>()
  --
  +Level(name: String, formationSpeed: float, attackCooldown: int, missileCooldown: int)
  +getName(): String
  +getFormationSpeed(): float
  +getAttackCooldown(): int
  +getMissileCooldown(): int
  +getEnemies(): List<Enemy>
  +addEnemy(type: EnemyType, lockX: float, lockY: float, value: int, speed: float): boolean
}

class LevelLoader {
  -levels: HashMap<String, Level> = new HashMap<>()
  --
  +LevelLoader()
  -parseHeader(lineHeader: String): Level
  -parseEnemy(lineEnemy: String, level: Level): boolean
  +load(path: String): String
  +getLevelNames(): List<String>
  +getLevel(name: String): Level
}

class State {
  +bestScore: int
  +player: Player
}

AppContext *-- AppFrame
AppContext *-- Renderer
AppContext *-- InputKeyListener
AppFrame ..> AppPanel
AppFrame ..> Application
Application *-- AppContext
Application --> AppFrame
Application --> AppPanel
AppPanel *-- Application
Entity ..> Entity
SpriteEntity --|> Entity
SpriteEntity --> Sprite
Renderer *-- AppFrame
Renderer ..> Renderer
Renderer ..> Sprite
Renderer ..> SpriteEntity
SpriteManager *-- SpriteManager
SpriteManager o-- Sprite
Enemy --|> SpriteEntity
EnemyBee --|> Enemy
EnemyButterFly --|> Enemy
EnemyMoth --|> Enemy
Player --|> SpriteEntity
Sky --|> Entity
Sky o-- Star
Star --|> Entity
FUD --|> Entity
FUD *-- Sprite
HUD --|> Entity
HUD *-- Text
Text --|> Entity
Galaga --|> Application
Galaga *-- LevelLoader
Galaga *-- Sky
Galaga *-- Player
Galaga o-- Enemy
Galaga *-- FUD
Galaga *-- HUD
Galaga ..> AppContext
Level o-- Enemy
LevelLoader o-- Level
State --> Player
@enduml